<svg width="144" height="144" viewBox="0 0 144 144" fill="none" xmlns="http://www.w3.org/2000/svg">
<path d="M78.6495 21.3613C78.7784 21.3629 78.9072 21.3645 79.04 21.3662C79.1693 21.3675 79.2985 21.3687 79.4317 21.3701C79.5316 21.3717 79.6315 21.3733 79.7344 21.375C79.7344 21.4678 79.7344 21.5606 79.7344 21.6562C79.9389 21.6693 79.9389 21.6693 80.1475 21.6826C80.6258 21.7471 80.9704 21.9151 81.3873 22.1556C81.4996 22.2198 81.6119 22.284 81.7276 22.3502C81.8123 22.3996 81.8971 22.4491 81.9844 22.5C81.8569 53.2496 81.8569 53.2496 81.7775 62.7064C81.7735 63.1971 81.7696 63.6877 81.7658 64.1783C81.7444 66.9091 81.7198 69.6364 81.6057 72.3651C81.5467 73.8694 81.5666 75.3698 81.6042 76.8745C81.6155 77.3278 81.6248 77.7811 81.6339 78.2345C81.6404 78.5273 81.647 78.8202 81.6537 79.1131C81.6565 79.2464 81.6593 79.3797 81.6621 79.517C81.6304 80.7316 81.6304 80.7316 82.0421 81.8124C82.1187 81.8663 82.1954 81.9201 82.2744 81.9756C82.4107 82.0713 82.5471 82.167 82.6875 82.2656C82.6411 82.3584 82.5947 82.4512 82.5469 82.5469C82.4077 82.5933 82.2684 82.6397 82.125 82.6875C83.6501 82.694 85.1738 82.6838 86.6984 82.6429C86.9083 82.6374 87.1182 82.6325 87.3281 82.6282C89.5387 82.594 89.5387 82.594 91.6875 82.125C91.8956 82.1045 92.1043 82.0903 92.3132 82.0805C92.4324 82.0746 92.5515 82.0687 92.6743 82.0627C92.7982 82.0571 92.9221 82.0516 93.0498 82.0459C93.1753 82.0398 93.3009 82.0338 93.4302 82.0275C93.7399 82.0126 94.0496 81.9982 94.3594 81.9844C94.7015 82.511 94.6813 83.0348 94.678 83.6411C94.6784 83.7483 94.6787 83.8554 94.6791 83.9658C94.6797 84.3132 94.6779 84.6605 94.6758 85.0078C94.6754 85.1257 94.6751 85.2435 94.6747 85.365C94.6691 87.0152 94.6304 88.6486 94.3978 90.285C94.359 90.5649 94.3278 90.845 94.2979 91.1261C94.2775 91.294 94.2572 91.4618 94.2363 91.6348C94.2193 91.7758 94.2022 91.9168 94.1847 92.0621C94.0781 92.3906 94.0781 92.3906 93.8474 92.5428C93.4317 92.7045 93.0434 92.7586 92.6007 92.8155C92.5101 92.8275 92.4195 92.8394 92.3261 92.8517C92.0269 92.8908 91.7276 92.9286 91.4282 92.9663C91.2187 92.9935 91.0091 93.0208 90.7996 93.0482C90.2473 93.1202 89.695 93.191 89.1426 93.2615C88.2625 93.374 87.3827 93.4883 86.5028 93.6026C86.1979 93.642 85.8929 93.681 85.5878 93.7199C84.476 93.8626 83.3697 94.0243 82.2656 94.2188C82.1641 94.8686 82.1017 95.5033 82.0805 96.1606C82.0717 96.4223 82.0717 96.4223 82.0627 96.6893C82.0571 96.8689 82.0516 97.0484 82.0459 97.2334C82.0398 97.4168 82.0338 97.6001 82.0275 97.789C82.0126 98.2395 81.9983 98.6901 81.9844 99.1406C81.8916 99.187 81.7987 99.2334 81.7031 99.2812C81.0172 98.9421 80.4244 98.4303 79.8223 97.9629C79.6162 97.8034 79.41 97.6441 79.2037 97.485C79.0551 97.37 79.0551 97.37 78.9034 97.2528C78.621 97.04 78.3329 96.839 78.0414 96.639C77.8353 96.4851 77.8353 96.4851 77.625 96.3281C77.625 96.2353 77.625 96.1425 77.625 96.0469C77.4858 96.0005 77.3466 95.9541 77.2031 95.9062C77.2031 95.8134 77.2031 95.7206 77.2031 95.625C77.1297 95.5897 77.0563 95.5543 76.9807 95.5179C76.5457 95.2951 76.1234 95.0516 75.7002 94.8076C75.5356 94.7129 75.371 94.6182 75.2064 94.5236C75.1222 94.472 75.038 94.4204 74.9513 94.3672C74.6702 94.2057 74.6702 94.2057 74.3304 94.1194C73.9067 93.971 73.6973 93.8621 73.4062 93.5156C73.2248 92.623 73.2482 91.7423 73.2656 90.835C73.2668 90.4643 73.2662 90.0937 73.2654 89.723C73.2655 89.4928 73.2672 89.2625 73.2705 89.0323C73.2839 88.4464 73.2839 88.4464 73.1772 87.8743C73.16 87.7868 73.1427 87.6994 73.125 87.6094C73.2178 87.5166 73.3106 87.4238 73.4062 87.3281C73.3134 87.2817 73.2206 87.2353 73.125 87.1875C73.1714 87.0483 73.2178 86.9091 73.2656 86.7656C73.2692 86.2567 73.2618 85.7499 73.2478 85.2413C73.2357 84.4199 73.2357 84.4199 73.5469 83.9531C73.8499 83.8665 73.8499 83.8665 74.2203 83.8196C74.3527 83.802 74.485 83.7843 74.6213 83.7661C74.7598 83.7495 74.8983 83.7329 75.041 83.7158C75.1806 83.6976 75.3202 83.6794 75.464 83.6606C75.8091 83.6158 76.1544 83.5728 76.5 83.5312C76.0835 83.2963 75.7447 83.204 75.2695 83.1621C75.1571 83.1516 75.0448 83.1411 74.929 83.1302C74.8441 83.1234 74.7593 83.1165 74.6719 83.1094C74.5297 78.0084 74.5084 72.9094 74.5129 67.8069C74.5136 67.0395 74.5139 66.2722 74.514 65.5049C74.5156 59.5469 74.5482 53.5908 74.6503 47.6337C74.6815 45.718 74.6816 43.8023 74.6667 41.8864C74.6658 41.7236 74.6658 41.7236 74.6649 41.5576C74.6633 41.2788 74.6607 41 74.6581 40.7213C74.6624 40.1786 74.7013 39.6406 74.74 39.0993C74.8484 37.507 74.8452 35.9122 74.857 34.3169C74.8599 33.9828 74.8628 33.6486 74.8659 33.3145C74.8735 32.4425 74.8805 31.5705 74.8873 30.6985C74.8945 29.8057 74.9023 28.9129 74.91 28.0201C74.925 26.2738 74.9393 24.5275 74.9531 22.7812C75.2158 22.645 75.479 22.5099 75.7425 22.3753C75.889 22.3 76.0355 22.2246 76.1865 22.147C76.7438 21.8899 77.2991 21.7326 77.8947 21.592C78.2462 21.5003 78.2784 21.3771 78.6495 21.3613ZM78.1875 21.9375C78.1875 22.4016 78.1875 22.8656 78.1875 23.3438C78.2339 23.3438 78.2803 23.3438 78.3281 23.3438C78.3281 22.8797 78.3281 22.4156 78.3281 21.9375C78.2817 21.9375 78.2353 21.9375 78.1875 21.9375ZM78.0469 23.7656C78.0469 23.9513 78.0469 24.1369 78.0469 24.3281C78.1397 24.2817 78.2325 24.2353 78.3281 24.1875C78.2817 24.0483 78.2353 23.9091 78.1875 23.7656C78.1411 23.7656 78.0947 23.7656 78.0469 23.7656ZM78.0469 24.4688C78.0469 25.3041 78.0469 26.1394 78.0469 27C78.0933 27 78.1397 27 78.1875 27C78.2571 25.747 78.2571 25.747 78.3281 24.4688C78.2353 24.4688 78.1425 24.4688 78.0469 24.4688ZM78.0469 27.1406C78.1875 27.4219 78.1875 27.4219 78.1875 27.4219L78.0469 27.1406ZM77.9062 27.5625C78.0469 28.125 78.0469 28.125 78.0469 28.125L77.9062 27.5625ZM77.9062 28.2656C77.9062 28.4977 77.9062 28.7297 77.9062 28.9688C77.9527 28.9688 77.9991 28.9688 78.0469 28.9688C78.0469 28.7367 78.0469 28.5047 78.0469 28.2656C78.0005 28.2656 77.9541 28.2656 77.9062 28.2656ZM79.5938 53.4375C79.7344 54 79.7344 54 79.7344 54L79.5938 53.4375ZM79.5938 54.5625C79.7344 54.8438 79.7344 54.8438 79.7344 54.8438L79.5938 54.5625ZM79.7344 57.6562C79.875 58.0781 79.875 58.0781 79.875 58.0781L79.7344 57.6562ZM79.7344 58.5C79.7344 58.7784 79.7344 59.0569 79.7344 59.3438C79.7808 59.3438 79.8272 59.3438 79.875 59.3438C79.875 59.0653 79.875 58.7869 79.875 58.5C79.8286 58.5 79.7822 58.5 79.7344 58.5ZM79.7344 59.625C79.7344 60.0427 79.7344 60.4603 79.7344 60.8906C79.7808 60.8906 79.8272 60.8906 79.875 60.8906C79.875 60.473 79.875 60.0553 79.875 59.625C79.8286 59.625 79.7822 59.625 79.7344 59.625ZM84.5156 86.9062C84.5156 86.9527 84.5156 86.9991 84.5156 87.0469C85.2117 87.0469 85.9078 87.0469 86.625 87.0469C86.625 87.0005 86.625 86.9541 86.625 86.9062C85.9289 86.9062 85.2328 86.9062 84.5156 86.9062ZM86.7656 86.9062C86.7656 86.9527 86.7656 86.9991 86.7656 87.0469C87.0441 87.0469 87.3225 87.0469 87.6094 87.0469C87.6094 87.0005 87.6094 86.9541 87.6094 86.9062C87.3309 86.9062 87.0525 86.9062 86.7656 86.9062ZM88.875 87.0469C88.875 87.0933 88.875 87.1397 88.875 87.1875C89.2927 87.1875 89.7103 87.1875 90.1406 87.1875C90.1406 87.1411 90.1406 87.0947 90.1406 87.0469C89.723 87.0469 89.3053 87.0469 88.875 87.0469ZM74.25 87.1875C74.8125 87.3281 74.8125 87.3281 74.8125 87.3281L74.25 87.1875Z" fill="black"/>
<path d="M120.094 45C120.555 45.433 120.92 45.9068 121.28 46.4238C121.403 46.5988 121.527 46.7736 121.65 46.9484C121.716 47.0418 121.782 47.1353 121.849 47.2315C122.078 47.5524 122.309 47.8708 122.541 48.1888C122.622 48.3 122.703 48.4112 122.787 48.5257C122.945 48.7426 123.103 48.9593 123.262 49.1757C123.597 49.6354 123.915 50.0896 124.189 50.5882C124.44 51.024 124.698 51.351 125.042 51.7148C125.619 52.3381 126.159 52.9822 126.693 53.6429C127 54.0192 127.319 54.383 127.647 54.741C127.828 54.9844 127.828 54.9844 127.982 55.3716C128.37 56.0327 128.917 56.3882 129.533 56.8301C129.657 56.921 129.782 57.0119 129.91 57.1056C130.293 57.3848 130.677 57.6613 131.063 57.9375C131.298 58.1083 131.534 58.2792 131.77 58.45C131.985 58.6046 132.201 58.759 132.416 58.9131C132.517 58.9853 132.617 59.0576 132.721 59.1321C133.183 59.4975 133.183 59.4975 133.734 59.625C133.895 59.7874 134.056 59.9502 134.214 60.115C134.661 60.541 135.176 60.8831 135.677 61.2422C136.663 61.9585 137.623 62.6963 138.562 63.4738C138.999 63.835 139.438 64.1875 139.896 64.5222C139.98 64.5845 140.065 64.6468 140.152 64.711C140.38 64.8775 140.609 65.0416 140.839 65.2055C141.241 65.5812 141.353 65.8419 141.469 66.375C141.435 66.7047 141.385 67.0329 141.328 67.3594C141.295 67.8239 141.267 68.2885 141.241 68.7535C141.188 69.1875 141.188 69.1875 141.049 69.496C140.867 70.0001 140.844 70.4839 140.822 71.014C140.817 71.1256 140.811 71.2373 140.806 71.3523C140.788 71.7234 140.772 72.0946 140.757 72.4658C140.745 72.7294 140.733 72.9929 140.721 73.2565C140.629 75.3757 140.583 77.4952 140.547 79.616C140.513 81.6094 140.444 83.5972 140.335 85.5879C140.214 87.8191 140.214 87.8191 140.159 90.0527C140.157 90.1765 140.154 90.3002 140.152 90.4277C140.147 90.789 140.147 90.789 140.203 91.2656C140.342 91.3584 140.482 91.4513 140.625 91.5469C140.664 91.9211 140.677 92.2621 140.671 92.6362C140.671 92.744 140.671 92.8519 140.67 92.963C140.669 93.1913 140.667 93.4195 140.665 93.6478C140.66 93.9972 140.659 94.3464 140.658 94.6958C140.657 94.9175 140.655 95.1391 140.654 95.3608C140.653 95.4654 140.652 95.57 140.652 95.6778C140.646 96.1184 140.625 96.4695 140.484 96.8906C140.089 97.0224 139.847 97.0493 139.438 97.0499C139.251 97.0504 139.251 97.0504 139.061 97.0509C138.927 97.0502 138.794 97.0495 138.656 97.0488C138.451 97.048 138.451 97.048 138.242 97.0471C137.313 97.0401 136.385 97.0239 135.457 96.9873C135.288 96.9826 135.288 96.9826 135.115 96.9778C134.8 96.9626 134.8 96.9626 134.297 96.8906C134.158 96.6818 134.158 96.6818 134.016 96.4688C134.108 96.4223 134.201 96.3759 134.297 96.3281C133.805 96.324 133.313 96.3215 132.82 96.3193C132.682 96.3182 132.544 96.317 132.402 96.3158C131.714 96.3135 131.052 96.3343 130.372 96.4327C129.747 96.5094 129.116 96.5223 128.487 96.5479C128.348 96.5539 128.209 96.56 128.066 96.5663C120.265 96.9008 120.265 96.9008 117.703 96.0469C117.517 95.489 117.644 95.0456 117.754 94.4841C117.786 94.3141 117.786 94.3141 117.819 94.1406C117.888 93.7768 117.958 93.4133 118.028 93.0498C118.546 90.3487 118.898 87.6795 119.118 84.9375C119.143 84.6379 119.167 84.3384 119.192 84.0388C119.25 83.332 119.307 82.6252 119.363 81.9182C119.386 81.6216 119.41 81.325 119.434 81.0285C119.543 79.6044 119.601 78.1778 119.662 76.751C119.681 76.3138 119.7 75.8767 119.719 75.4395C119.732 75.1578 119.744 74.8761 119.756 74.5944C119.762 74.4656 119.767 74.3368 119.773 74.2042C119.806 73.4218 119.818 72.6425 119.813 71.8594C119.766 71.8594 119.72 71.8594 119.672 71.8594C119.672 71.6273 119.672 71.3953 119.672 71.1563C119.718 71.1563 119.765 71.1563 119.813 71.1563C119.979 70.4738 120.006 69.7895 120.041 69.0908C120.047 68.9655 120.054 68.8402 120.06 68.7111C120.097 67.8695 120.078 67.0694 119.953 66.2344C120.046 66.2344 120.139 66.2344 120.234 66.2344C120.218 65.4138 120.2 64.5933 120.182 63.7728C120.176 63.494 120.17 63.2152 120.164 62.9364C120.156 62.5343 120.147 62.1321 120.138 61.73C120.136 61.6066 120.134 61.4832 120.131 61.3561C120.114 60.6288 120.056 59.9235 119.953 59.2031C120.046 59.2031 120.139 59.2031 120.234 59.2031C120.237 59.0233 120.24 58.8435 120.243 58.6582C120.245 58.5571 120.246 58.4559 120.248 58.3517C120.252 58.0666 120.252 58.0666 120.094 57.7969C120.072 57.557 120.059 57.3163 120.049 57.0756C120.043 56.93 120.037 56.7843 120.031 56.6342C120.026 56.4813 120.02 56.3284 120.015 56.1709C120.009 56.0218 120.003 55.8727 119.996 55.7191C119.967 54.9631 119.947 54.2105 119.965 53.454C119.96 53.1404 119.96 53.1404 119.881 52.7748C119.797 52.2052 119.81 51.6638 119.83 51.0897C119.833 50.9732 119.836 50.8567 119.84 50.7366C119.85 50.3654 119.862 49.9942 119.874 49.623C119.889 49.1364 119.903 48.6497 119.917 48.163C119.921 48.0465 119.925 47.93 119.928 47.81C119.951 47.0146 119.957 46.221 119.942 45.4252C119.953 45.1406 119.953 45.1406 120.094 45ZM126.844 62.1563C126.637 62.9917 126.508 63.8012 126.453 64.6595C126.444 64.775 126.436 64.8904 126.428 65.0094C126.401 65.3854 126.376 65.7616 126.352 66.1377C126.333 66.4032 126.315 66.6687 126.297 66.9342C126.177 68.6808 126.075 70.4281 125.984 72.1764C125.902 73.739 125.796 75.2985 125.676 76.8586C125.511 79.0231 125.374 81.1871 125.271 83.3555C125.265 83.4792 125.259 83.6029 125.252 83.7303C125.186 85.1183 125.138 86.5008 125.156 87.8906C126.248 88.1025 127.339 88.263 128.443 88.3916C128.599 88.4098 128.754 88.428 128.914 88.4467C130.505 88.6305 132.066 88.7548 133.668 88.7293C133.925 88.7261 134.181 88.7296 134.438 88.7344C134.484 88.7808 134.53 88.8272 134.578 88.875C134.625 88.875 134.671 88.875 134.719 88.875C134.719 88.7679 134.72 88.6609 134.72 88.5506C134.728 87.1499 134.74 85.7493 134.754 84.3486C134.755 84.2349 134.756 84.1212 134.757 84.004C134.784 81.2629 134.844 78.5283 135.014 75.7919C135.024 75.6237 135.024 75.6237 135.035 75.4521C135.102 74.3699 135.174 73.2882 135.256 72.207C135.285 71.81 135.312 71.4128 135.339 71.0156C135.358 70.7446 135.381 70.4738 135.403 70.2031C135.414 70.0417 135.425 69.8802 135.436 69.7139C135.453 69.5041 135.453 69.5041 135.469 69.2901C135.372 68.5004 134.712 68.0557 134.121 67.5879C133.66 67.2216 133.209 66.8488 132.769 66.4585C132.223 65.9786 131.659 65.5306 131.08 65.0918C130.979 65.015 130.878 64.9382 130.774 64.859C129.991 64.2665 129.202 63.6831 128.408 63.1055C128.3 63.0266 128.193 62.9477 128.081 62.8664C127.981 62.7938 127.88 62.7211 127.777 62.6462C127.688 62.582 127.599 62.5178 127.508 62.4516C127.249 62.2721 127.249 62.2721 126.844 62.1563Z" fill="black"/>
<path d="M55.4062 42.4688C55.3633 42.6236 55.3203 42.7784 55.2761 42.9379C55.1739 43.3073 55.0729 43.6769 54.974 44.0472C54.7451 44.903 54.5073 45.7548 54.2568 46.6045C54.1076 47.1147 53.9635 47.6263 53.82 48.1381C53.7477 48.3919 53.6734 48.6451 53.5969 48.8977C53.0406 50.7409 52.9888 52.1786 53.3681 54.0633C53.4785 54.6337 53.5547 55.2082 53.6336 55.7836C53.6661 56.0091 53.6988 56.2346 53.7317 56.46C53.7482 56.5733 53.7647 56.6866 53.7817 56.8033C53.7986 56.9194 53.8156 57.0356 53.833 57.1553C53.8508 57.2771 53.8685 57.3988 53.8868 57.5243C54.1851 59.5671 54.5012 61.6066 54.8264 63.6452C55.128 65.5374 55.4125 67.4318 55.6875 69.3281C56.3651 69.2529 56.9993 69.1567 57.6562 68.9678C57.7897 68.9299 57.9231 68.892 58.0605 68.853C58.1592 68.8241 58.2578 68.7953 58.3594 68.7656C58.5588 69.3929 58.369 69.8672 58.166 70.4707C58.133 70.5731 58.1 70.6755 58.066 70.7811C57.8251 71.5217 57.8251 71.5217 57.6562 71.8594C57.7576 72.3616 57.8834 72.8556 58.0084 73.3524C58.0781 73.8281 58.0781 73.8281 57.9732 74.161C57.7304 74.4773 57.4674 74.5539 57.0938 74.6719C57.0259 75.6589 57.2787 76.5643 57.5068 77.5195C57.9448 79.3548 57.9448 79.3548 58.0073 80.2161C58.0719 81.0994 58.2612 81.9477 58.4533 82.8109C58.5658 83.3177 58.6748 83.8252 58.784 84.3327C58.8068 84.4385 58.8296 84.5444 58.8531 84.6534C59.1165 85.8819 59.3588 87.1144 59.5986 88.3477C59.6192 88.4529 59.6399 88.558 59.6611 88.6664C59.9125 89.9506 60.1412 91.2358 60.3281 92.5313C60.2581 92.5815 60.188 92.6317 60.1158 92.6834C59.7909 92.9166 59.4662 93.1502 59.1416 93.3838C59.0258 93.4671 58.9099 93.5505 58.7906 93.6363C58.0951 94.1384 57.4103 94.6488 56.7466 95.1927C56.5312 95.3438 56.5312 95.3438 56.25 95.3438C56.1175 95.5425 55.9856 95.7418 55.8578 95.9436C55.566 96.3615 55.2199 96.6878 54.8438 97.0313C54.7509 97.0313 54.6581 97.0313 54.5625 97.0313C54.2809 96.4868 54.1291 96.0274 54.0901 95.4157C53.9978 94.3247 53.7985 93.2533 53.6088 92.176C53.4962 91.5359 53.3858 90.8954 53.2755 90.2549C53.2533 90.1263 53.2311 89.9978 53.2083 89.8653C53.0014 88.6609 52.8075 87.4547 52.6201 86.2471C52.5928 86.0715 52.5655 85.8959 52.5373 85.715C52.4111 84.8964 52.29 84.0774 52.1757 83.2571C52.0018 82.0297 51.782 80.8108 51.5643 79.5905C51.5339 79.4172 51.5034 79.2439 51.472 79.0653C51.4444 78.9099 51.4167 78.7546 51.3882 78.5945C51.3281 78.1875 51.3281 78.1875 51.3281 77.625C51.1563 77.677 51.1563 77.677 50.981 77.73C50.5438 77.8622 50.1066 77.9941 49.6692 78.1258C49.4749 78.1844 49.2805 78.243 49.0862 78.3017C47.8307 78.6806 46.5744 79.0541 45.3014 79.3708C44.7971 79.5028 44.4784 79.6019 44.1562 80.0156C44.0137 80.4077 44.0137 80.4077 43.9112 80.8662C43.8679 81.0432 43.8245 81.2202 43.7799 81.4025C43.7337 81.5979 43.6876 81.7933 43.6415 81.9888C43.5924 82.1927 43.5432 82.3966 43.4939 82.6005C43.3619 83.1484 43.2321 83.6968 43.1028 84.2454C43.0227 84.585 42.9419 84.9246 42.861 85.2641C41.9204 89.214 41.0878 93.177 40.3594 97.1719C39.851 97.3314 39.5779 97.2738 39.0904 97.0448C38.5468 96.7432 38.0538 96.3733 37.5557 96.0029C37.4488 95.9247 37.3419 95.8465 37.2318 95.7659C36.536 95.2555 35.8457 94.7377 35.1562 94.2188C35.3835 92.5108 35.75 90.8323 36.1055 89.1475C36.1688 88.8455 36.2322 88.5435 36.2955 88.2415C36.4775 87.3744 36.6605 86.5075 36.8438 85.6406C36.8924 85.4102 36.941 85.1798 36.9897 84.9493C37.1075 84.3915 37.2259 83.8339 37.3447 83.2764C37.3783 83.1184 37.4119 82.9604 37.4465 82.7976C37.4921 82.5851 37.4921 82.5851 37.5386 82.3684C37.5643 82.2486 37.59 82.1288 37.6164 82.0054C37.6875 81.7031 37.6875 81.7031 37.8281 81.2813C37.6095 81.3397 37.6095 81.3397 37.3865 81.3994C37.1938 81.4508 37.0012 81.5023 36.8086 81.5537C36.7127 81.5794 36.6168 81.605 36.518 81.6314C36.0649 81.7524 35.6115 81.8715 35.1562 81.9844C35.2409 80.5967 35.4047 79.2263 35.5924 77.8494C35.64 77.4997 35.6861 77.1498 35.7322 76.7999C35.7626 76.5743 35.7931 76.3487 35.8237 76.1232C35.8372 76.0202 35.8506 75.9172 35.8645 75.8111C35.9525 75.176 36.0611 74.5725 36.2812 73.9688C36.4205 73.9223 36.5597 73.8759 36.7031 73.8281C36.5175 73.7353 36.3319 73.6425 36.1406 73.5469C36.4219 73.125 36.4219 73.125 36.8153 73.0126C36.9787 72.9853 37.1422 72.9581 37.3107 72.93C37.4874 72.8996 37.6642 72.8693 37.8463 72.838C38.0336 72.8076 38.2209 72.7773 38.4082 72.7471C38.5966 72.7153 38.7851 72.6833 38.9734 72.6512C39.4352 72.5732 39.8971 72.4968 40.3594 72.4219C40.3911 72.2745 40.4228 72.1271 40.4555 71.9752C41.0299 69.3102 41.6148 66.6492 42.2666 64.002C43.3721 59.4981 44.3452 54.9759 45.2591 50.4296C45.3521 49.967 45.4454 49.5045 45.5392 49.0421C45.6988 48.2555 45.8566 47.4689 46.0039 46.6798C46.0402 46.4917 46.0402 46.4917 46.0772 46.2999C46.1205 46.0751 46.1621 45.8499 46.2016 45.6244C46.2888 45.1813 46.356 44.9089 46.6823 44.5874C47.0217 44.4098 47.3329 44.3195 47.707 44.2354C47.9286 44.184 47.9286 44.184 48.1547 44.1315C48.3202 44.0933 48.4857 44.055 48.6562 44.0156C48.8485 43.9673 49.0405 43.9183 49.2325 43.869C49.3308 43.8437 49.4291 43.8185 49.5303 43.7926C49.722 43.7433 49.9137 43.6938 50.1052 43.644C50.5572 43.5294 50.9939 43.4421 51.4572 43.3839C51.6002 43.3603 51.7433 43.3368 51.8906 43.3125C51.937 43.2197 51.9834 43.1269 52.0312 43.0313C52.3108 42.9753 52.5925 42.9294 52.875 42.8906C53.0629 42.8456 53.2504 42.7985 53.4375 42.75C53.6452 42.6991 53.8533 42.6493 54.0615 42.6006C54.1658 42.5758 54.27 42.5509 54.3774 42.5253C54.7262 42.4647 55.0529 42.4594 55.4062 42.4688ZM52.0312 43.4531C52.1719 43.7344 52.1719 43.7344 52.1719 43.7344L52.0312 43.4531ZM51.8906 43.875C52.0312 44.1563 52.0312 44.1563 52.0312 44.1563L51.8906 43.875ZM48.9375 44.4375C49.0781 45 49.0781 45 49.0781 45L48.9375 44.4375ZM51.75 44.4375C51.8906 44.7188 51.8906 44.7188 51.8906 44.7188L51.75 44.4375ZM48.7969 45C48.9375 45.5625 48.9375 45.5625 48.9375 45.5625L48.7969 45ZM51.6094 45C51.75 45.2813 51.75 45.2813 51.75 45.2813L51.6094 45ZM51.4688 45.4219C51.6094 45.9844 51.6094 45.9844 51.6094 45.9844L51.4688 45.4219ZM48.6562 45.5625C48.7969 46.125 48.7969 46.125 48.7969 46.125L48.6562 45.5625ZM51.3281 45.9844C51.4688 46.5469 51.4688 46.5469 51.4688 46.5469L51.3281 45.9844ZM48.5156 46.2656C48.6562 46.6875 48.6562 46.6875 48.6562 46.6875L48.5156 46.2656ZM51.1875 46.5469C51.3281 47.1094 51.3281 47.1094 51.3281 47.1094L51.1875 46.5469ZM48.375 46.6875C48.5156 47.25 48.5156 47.25 48.5156 47.25L48.375 46.6875ZM51.0469 47.25C51.1875 47.6719 51.1875 47.6719 51.1875 47.6719L51.0469 47.25ZM48.2344 47.3906C48.375 47.9531 48.375 47.9531 48.375 47.9531L48.2344 47.3906ZM50.9062 47.6719C51.0469 48.0938 51.0469 48.0938 51.0469 48.0938L50.9062 47.6719ZM48.0938 48.0938C48.2344 48.5156 48.2344 48.5156 48.2344 48.5156L48.0938 48.0938ZM47.9531 48.6563C48.0938 49.2188 48.0938 49.2188 48.0938 49.2188L47.9531 48.6563ZM47.8125 49.3594C47.9531 49.6406 47.9531 49.6406 47.9531 49.6406L47.8125 49.3594ZM48.2344 60.6094C47.6686 62.6827 47.1182 64.7596 46.582 66.8408C46.5553 66.9443 46.5286 67.0477 46.501 67.1543C45.8476 69.3427 45.8476 69.3427 45.5625 71.5781C46.6042 71.5518 47.5876 71.344 48.5947 71.0947C48.7203 71.0642 48.8459 71.0336 48.9753 71.0021C49.1526 70.9568 49.1526 70.9568 49.3336 70.9107C49.4401 70.8836 49.5466 70.8565 49.6563 70.8286C49.9511 70.7454 49.9511 70.7454 50.2031 70.4531C50.1658 70.0936 50.1118 69.7581 50.04 69.405C50.0196 69.2981 49.9993 69.1912 49.9783 69.0811C49.9111 68.7295 49.8418 68.3785 49.7725 68.0273C49.6787 67.5412 49.586 67.0548 49.4934 66.5684C49.4699 66.4459 49.4465 66.3233 49.4223 66.1971C49.2721 65.4085 49.1332 64.6188 49.0056 63.8262C48.9898 63.7279 48.9739 63.6297 48.9576 63.5285C48.8836 63.0674 48.8114 62.6061 48.7405 62.1446C48.7147 61.9824 48.6889 61.8202 48.6623 61.6531C48.6406 61.5118 48.6189 61.3706 48.5965 61.225C48.5406 60.8667 48.5406 60.8667 48.2344 60.6094ZM53.7188 84.6563C53.8594 85.2188 53.8594 85.2188 53.8594 85.2188L53.7188 84.6563ZM53.8594 85.3594C54 85.7813 54 85.7813 54 85.7813L53.8594 85.3594ZM41.9062 85.5C42.0469 85.7813 42.0469 85.7813 42.0469 85.7813L41.9062 85.5ZM41.7656 85.9219C41.9062 86.2031 41.9062 86.2031 41.9062 86.2031L41.7656 85.9219ZM54 86.0625C54.0464 86.3873 54.0928 86.7122 54.1406 87.0469C54.2379 86.7871 54.2379 86.7871 54.2812 86.4844C54.1884 86.3452 54.0956 86.2059 54 86.0625ZM54.2812 87.1875C54.3277 87.5123 54.3741 87.8372 54.4219 88.1719C54.5191 87.9121 54.5191 87.9121 54.5625 87.6094C54.4697 87.4702 54.3769 87.3309 54.2812 87.1875ZM41.4844 87.3281C41.625 87.6094 41.625 87.6094 41.625 87.6094L41.4844 87.3281ZM54.5625 88.1719C54.7031 88.7344 54.7031 88.7344 54.7031 88.7344L54.5625 88.1719ZM54.7031 88.7344C54.7711 89.607 54.8906 90.4218 55.125 91.2656C55.1714 91.2656 55.2178 91.2656 55.2656 91.2656C55.1834 90.402 55.049 89.5772 54.8438 88.7344C54.7973 88.7344 54.7509 88.7344 54.7031 88.7344ZM55.2656 91.2656C55.2817 91.4679 55.2997 91.67 55.3184 91.8721C55.3281 91.9846 55.3379 92.0972 55.348 92.2132C55.3916 92.5695 55.3916 92.5695 55.6875 92.9531C55.6614 92.6921 55.6614 92.6921 55.6348 92.4258C55.625 92.3279 55.6152 92.23 55.6051 92.1292C55.5419 91.8024 55.4263 91.5555 55.2656 91.2656ZM40.5 91.4063C40.6406 91.6875 40.6406 91.6875 40.6406 91.6875L40.5 91.4063ZM40.3594 91.9688C40.5 92.25 40.5 92.25 40.5 92.25L40.3594 91.9688ZM40.2188 92.5313C40.3594 92.8125 40.3594 92.8125 40.3594 92.8125L40.2188 92.5313ZM55.6875 93.0938C55.8281 93.5156 55.8281 93.5156 55.8281 93.5156L55.6875 93.0938ZM40.0781 93.2344C40.2188 93.5156 40.2188 93.5156 40.2188 93.5156L40.0781 93.2344ZM55.8281 93.6563C55.9688 94.0781 55.9688 94.0781 55.9688 94.0781L55.8281 93.6563ZM39.9375 93.7969C40.0781 94.0781 40.0781 94.0781 40.0781 94.0781L39.9375 93.7969ZM39.7969 94.3594C39.9375 94.7813 39.9375 94.7813 39.9375 94.7813L39.7969 94.3594ZM55.9688 94.3594C56.1094 94.7813 56.1094 94.7813 56.1094 94.7813L55.9688 94.3594ZM39.6562 95.0625C39.7969 95.4844 39.7969 95.4844 39.7969 95.4844L39.6562 95.0625ZM39.5156 95.7656C39.6562 96.0469 39.6562 96.0469 39.6562 96.0469L39.5156 95.7656ZM39.375 96.4688C39.5156 96.75 39.5156 96.75 39.5156 96.75L39.375 96.4688Z" fill="black"/>
<path d="M33.0469 51.8906C33.1861 51.937 33.3253 51.9834 33.4688 52.0312C33.818 52.8372 33.7611 53.6505 33.6077 54.4916C33.5897 54.6016 33.5717 54.7115 33.5532 54.8248C33.5147 55.0589 33.4751 55.2928 33.4347 55.5266C33.3281 56.1448 33.2303 56.7644 33.1309 57.3838C33.1111 57.5061 33.0912 57.6284 33.0708 57.7544C32.2718 62.6845 32.1881 67.6844 32.0834 72.6685C32.0801 72.8233 32.0801 72.8233 32.0768 72.9812C32.0676 73.4453 32.0648 73.9059 32.0784 74.37C32.0625 74.8125 32.0625 74.8125 31.7867 75.1767C31.2619 75.5929 30.7173 75.9485 30.1465 76.2979C29.909 76.4452 29.6715 76.5926 29.434 76.7401C29.3118 76.8156 29.1896 76.8911 29.0637 76.9689C28.6832 77.2058 28.3052 77.4463 27.9278 77.6882C27.8062 77.7659 27.6846 77.8437 27.5593 77.9238C27.3242 78.0742 27.0894 78.225 26.8549 78.3762C26.6959 78.4775 26.6959 78.4775 26.5336 78.5808C26.3934 78.6707 26.3934 78.6707 26.2504 78.7625C26.0156 78.8906 26.0156 78.8906 25.7344 78.8906C26.1819 79.7325 26.6695 80.5183 27.2285 81.29C27.3784 81.4996 27.5282 81.7093 27.6779 81.919C27.7528 82.0238 27.8277 82.1286 27.9049 82.2366C28.3071 82.8036 28.6983 83.3782 29.0898 83.9526C29.4117 84.4235 29.7378 84.8902 30.0745 85.3506C30.9293 86.5233 31.7176 87.7286 32.4668 88.9717C32.6013 89.1885 32.6013 89.1885 32.7386 89.4098C32.8197 89.5471 32.9007 89.6844 32.9843 89.8259C33.0575 89.9476 33.1307 90.0694 33.2061 90.1948C33.3709 90.6914 33.2516 90.9341 33.0469 91.4062C32.9877 91.5438 32.9877 91.5438 32.9273 91.684C32.7952 91.9523 32.6629 92.2203 32.5283 92.4873C32.4789 92.5858 32.4294 92.6843 32.3785 92.7858C31.9497 93.6266 31.4657 94.4208 30.9375 95.2031C30.876 95.2961 30.8146 95.3891 30.7513 95.4849C30.6269 95.673 30.5012 95.8601 30.375 96.0469C29.923 95.8574 29.7214 95.6922 29.4846 95.2646C29.4274 95.164 29.3702 95.0634 29.3112 94.9598C29.2244 94.8018 29.2244 94.8018 29.1357 94.6406C28.6904 93.8418 28.2138 93.0882 27.6832 92.3429C27.2111 91.667 26.7738 90.9685 26.332 90.2725C26.1336 89.9612 25.9351 89.6499 25.7366 89.3386C25.6404 89.1877 25.5442 89.0368 25.4452 88.8813C23.6237 86.0256 23.6237 86.0256 21.6914 83.2445C21.5156 82.9688 21.5156 82.9688 21.5156 82.6875C20.926 82.9456 20.3403 83.204 19.7666 83.4961C19.4062 83.6719 19.4062 83.6719 19.125 83.6719C19.0968 87.4482 19.1157 91.231 19.454 94.9948C19.5351 95.9108 19.562 96.8148 19.5469 97.7344C18.9977 97.6783 18.5264 97.5953 18.0264 97.3652C17.8045 97.2695 17.8045 97.2695 17.5781 97.1719C17.4853 97.2183 17.3925 97.2647 17.2969 97.3125C16.7093 97.1584 16.1379 96.9524 15.5642 96.7532C15.2781 96.6543 14.9912 96.5583 14.7041 96.4624C14.5213 96.3997 14.3386 96.3368 14.1559 96.2737C13.9067 96.1884 13.9067 96.1884 13.6525 96.1014C13.1929 95.8946 12.9699 95.7345 12.6562 95.3438C12.5993 94.9684 12.5993 94.9684 12.6182 94.5348C12.6239 94.3718 12.6296 94.2087 12.6354 94.0407C12.6445 93.8643 12.6535 93.688 12.6628 93.5063C12.6736 93.226 12.6844 92.9458 12.6951 92.6655C12.711 92.2717 12.7295 91.8781 12.748 91.4844C12.7836 90.7114 12.8136 89.9383 12.8447 89.1651C12.8561 88.8849 12.868 88.6047 12.8798 88.3245C12.9376 86.9133 12.9578 85.5059 12.9375 84.0938C12.7838 84.1564 12.7838 84.1564 12.627 84.2204C12.0774 84.4446 11.5468 84.6588 10.9688 84.7969C11.008 84.3426 11.0497 83.8886 11.0918 83.4346C11.1084 83.2422 11.1084 83.2422 11.1253 83.0459C11.1371 82.9213 11.1489 82.7967 11.161 82.6683C11.1713 82.5541 11.1816 82.44 11.1923 82.3224C11.2592 81.9306 11.3414 81.6322 11.5312 81.2812C11.8608 81.083 11.8608 81.083 12.2421 80.9132C12.7759 80.6174 12.7759 80.6174 13.0656 80.1045C13.1094 79.6882 13.1104 79.2914 13.0957 78.873C13.096 78.7219 13.0962 78.5707 13.0965 78.415C13.0963 78.0899 13.093 77.7648 13.087 77.4398C13.0777 76.898 13.0787 76.3569 13.082 75.815C13.0871 74.8714 13.085 73.928 13.0781 72.9844C12.8962 73.0952 12.7146 73.2067 12.5332 73.3184C12.4321 73.3804 12.3309 73.4424 12.2267 73.5062C11.9365 73.6854 11.9365 73.6854 11.6719 73.9688C11.2013 72.851 11.3145 71.7253 11.6719 70.5938C11.7647 70.4545 11.8575 70.3153 11.9531 70.1719C11.7675 70.2183 11.5819 70.2647 11.3906 70.3125C11.3824 69.791 11.3774 69.2696 11.373 68.748C11.3695 68.5273 11.3695 68.5273 11.3659 68.302C11.3549 66.5675 11.3549 66.5675 11.9515 65.9405C12.0593 65.8547 12.1672 65.769 12.2783 65.6807C12.6898 65.338 13.0139 65.0361 13.2979 64.582C13.6087 64.1125 13.9295 63.9426 14.4399 63.7229C14.7907 63.5502 15.0858 63.3466 15.4017 63.1165C16.3313 62.4558 17.3087 61.8811 18.2881 61.2982C18.4954 61.1737 18.4954 61.1737 18.707 61.0466C18.8935 60.9356 18.8935 60.9356 19.0838 60.8224C19.3737 60.6309 19.5849 60.4318 19.8281 60.1875C19.9499 60.1476 20.0718 60.1077 20.1973 60.0667C20.8339 59.8515 21.3663 59.518 21.9375 59.168C22.0612 59.0928 22.1849 59.0176 22.3123 58.9402C24.5674 57.5637 26.7792 56.1241 28.9775 54.6592C29.0755 54.5939 29.1735 54.5287 29.2744 54.4614C29.561 54.2703 29.8475 54.0789 30.1339 53.8874C30.2712 53.7958 30.2712 53.7958 30.4112 53.7024C30.8626 53.4002 31.3095 53.0933 31.7504 52.7759C31.8342 52.7161 31.918 52.6562 32.0043 52.5945C32.2319 52.4312 32.4583 52.2661 32.6846 52.1009C32.8041 52.0315 32.9237 51.9621 33.0469 51.8906ZM25.5674 64.3975C24.9653 64.8284 24.3499 65.2171 23.7129 65.5928C22.3792 66.382 21.1021 67.2468 19.8364 68.1405C19.6016 68.3054 19.3637 68.4659 19.125 68.625C19.0632 69.0056 19.0632 69.0056 19.0771 69.4573C19.0771 69.6318 19.0772 69.8064 19.0772 69.9862C19.0794 70.1773 19.0816 70.3685 19.0838 70.5597C19.0846 70.7548 19.0852 70.9498 19.0856 71.1449C19.0872 71.6586 19.0914 72.1723 19.096 72.686C19.1003 73.2101 19.1023 73.7342 19.1044 74.2582C19.1089 75.2868 19.1161 76.3153 19.125 77.3438C19.5703 77.1704 19.9529 77.0005 20.3406 76.7203C20.4817 76.6193 20.4817 76.6193 20.6257 76.5163C20.7747 76.4082 20.7747 76.4082 20.9268 76.2979C21.1403 76.1448 21.354 75.9919 21.5678 75.8392C21.676 75.7617 21.7842 75.6842 21.8957 75.6044C22.4763 75.1921 23.065 74.7916 23.654 74.3915C23.8278 74.2728 23.9997 74.1514 24.1699 74.0277C24.4688 73.8281 24.4688 73.8281 24.869 73.6319C25.4204 73.3249 25.8969 73.0464 26.1125 72.4229C26.2884 71.5767 26.2999 70.7166 26.3232 69.8555C26.3359 69.5998 26.3491 69.3442 26.3631 69.0886C26.4488 67.388 26.451 65.6867 26.4375 63.9844C26.0409 63.9844 25.8858 64.1623 25.5674 64.3975ZM27.2812 87.1875C27.4219 87.4688 27.4219 87.4688 27.4219 87.4688L27.2812 87.1875ZM27.5625 87.6094C27.7031 87.8906 27.7031 87.8906 27.7031 87.8906L27.5625 87.6094ZM27.7031 87.8906C27.7495 88.0298 27.7959 88.1691 27.8438 88.3125C27.8438 88.1733 27.8438 88.0341 27.8438 87.8906C27.7973 87.8906 27.7509 87.8906 27.7031 87.8906ZM27.9844 88.3125C28.1829 89.0524 28.5115 89.539 28.9688 90.1406C29.0152 90.0478 29.0616 89.955 29.1094 89.8594C28.9105 89.4769 28.9105 89.4769 28.6348 89.0684C28.5438 88.9273 28.4528 88.7863 28.359 88.641C28.2818 88.5326 28.2046 88.4242 28.125 88.3125C28.0786 88.3125 28.0322 88.3125 27.9844 88.3125ZM29.1094 90.1406C29.2793 90.7637 29.4633 91.1223 29.9531 91.5469C29.7656 91.042 29.5461 90.5912 29.25 90.1406C29.2036 90.1406 29.1572 90.1406 29.1094 90.1406ZM29.9531 91.5469C30.0938 91.8281 30.0938 91.8281 30.0938 91.8281L29.9531 91.5469ZM30.0938 91.8281C30.2344 92.1094 30.2344 92.1094 30.2344 92.1094L30.0938 91.8281ZM30.2344 92.1094C30.4383 92.6873 30.7281 93.1546 31.0781 93.6562C31.1245 93.5634 31.1709 93.4706 31.2188 93.375C31.0816 93.1637 30.9438 92.9528 30.8057 92.7422C30.729 92.6247 30.6523 92.5073 30.5733 92.3862C30.5079 92.2949 30.4424 92.2035 30.375 92.1094C30.3286 92.1094 30.2822 92.1094 30.2344 92.1094ZM17.4375 93.0938C17.4375 93.5114 17.4375 93.9291 17.4375 94.3594C17.4839 94.3594 17.5303 94.3594 17.5781 94.3594C17.5781 93.9417 17.5781 93.5241 17.5781 93.0938C17.5317 93.0938 17.4853 93.0938 17.4375 93.0938ZM31.2188 93.6562C31.3594 93.9375 31.3594 93.9375 31.3594 93.9375L31.2188 93.6562ZM17.4375 94.5C17.5781 94.9219 17.5781 94.9219 17.5781 94.9219L17.4375 94.5ZM17.4375 95.0625C17.4375 95.3409 17.4375 95.6194 17.4375 95.9062C17.4839 95.9062 17.5303 95.9062 17.5781 95.9062C17.5781 95.6278 17.5781 95.3494 17.5781 95.0625C17.5317 95.0625 17.4853 95.0625 17.4375 95.0625Z" fill="black"/>
<path d="M96.6094 33.4688C98.427 34.0541 99.964 35.2282 101.497 36.3357C102.148 36.8038 102.806 37.2624 103.462 37.7233C104.188 38.2345 104.188 38.2345 104.344 38.3906C104.346 38.771 104.34 39.1474 104.327 39.5274C104.32 39.78 104.313 40.0326 104.307 40.2852C104.303 40.4219 104.299 40.5586 104.295 40.6994C104.215 43.5758 104.188 46.4512 104.189 49.3286C104.189 49.4238 104.189 49.5189 104.189 49.6169C104.19 50.8226 104.191 52.0283 104.193 53.234C104.195 54.3083 104.195 55.3826 104.196 56.4569C104.197 58.3751 104.198 60.2933 104.2 62.2116C104.2 62.382 104.2 62.382 104.201 62.5559C104.201 63.3631 104.202 64.1703 104.203 64.9775C104.204 65.9058 104.205 66.8341 104.206 67.7624C104.206 67.8769 104.206 67.9915 104.206 68.1095C104.208 70.0271 104.21 71.9447 104.211 73.8623C104.211 75.0366 104.212 76.211 104.214 77.3853C104.215 78.1886 104.216 78.992 104.216 79.7954C104.217 80.2563 104.217 80.7173 104.218 81.1782C104.219 81.6815 104.219 82.1847 104.219 82.6879C104.22 82.8281 104.22 82.9684 104.221 83.1128C104.219 84.617 104.131 86.1013 104.062 87.6094C108.285 87.6558 112.508 87.7022 116.859 87.75C116.708 88.8885 116.556 90.0186 116.377 91.1514C116.311 91.5905 116.252 92.0294 116.195 92.4697C116.177 92.6086 116.159 92.7474 116.141 92.8905C116.105 93.1684 116.07 93.4465 116.035 93.7247C116.019 93.8531 116.002 93.9815 115.985 94.1138C115.963 94.2864 115.963 94.2864 115.941 94.4624C115.872 94.7955 115.75 95.0437 115.594 95.3438C114.288 95.3517 112.984 95.3282 111.679 95.2872C111.485 95.2812 111.291 95.2752 111.097 95.2693C110.694 95.2568 110.292 95.2441 109.889 95.2313C109.375 95.215 108.86 95.1994 108.346 95.1841C107.947 95.172 107.548 95.1595 107.149 95.1468C106.868 95.1379 106.587 95.1296 106.306 95.1213C106.049 95.1129 106.049 95.1129 105.786 95.1043C105.636 95.0996 105.486 95.0949 105.332 95.0901C104.901 95.0621 104.487 95.0002 104.062 94.9219C104.064 95.0375 104.066 95.1532 104.067 95.2723C104.075 96.2449 104.039 97.191 103.922 98.1562C102.896 97.8361 101.93 97.4278 100.951 96.9873C99.7708 96.4612 98.5884 95.9532 97.3828 95.4877C97.0312 95.3438 97.0312 95.3438 96.8906 95.2031C96.8664 94.842 96.8507 94.4842 96.8412 94.1226C96.8379 94.0142 96.8347 93.9059 96.8313 93.7942C96.8246 93.5645 96.8183 93.3348 96.8122 93.1051C96.8028 92.7529 96.7918 92.4008 96.7808 92.0487C96.7744 91.8259 96.7682 91.6032 96.7621 91.3804C96.7587 91.2747 96.7554 91.1689 96.7519 91.0599C96.7338 90.3136 96.7338 90.3136 96.8906 90C96.9118 89.6928 96.924 89.385 96.9323 89.0772C96.9364 88.9331 96.9364 88.9331 96.9405 88.786C96.9494 88.4615 96.9571 88.1371 96.9648 87.8126C96.9677 87.6988 96.9705 87.5851 96.9735 87.4678C97.05 84.429 97.0786 81.3894 97.1062 78.3498C97.1104 77.8829 97.1148 77.4161 97.1192 76.9492C97.155 73.158 97.1857 69.3667 97.1895 65.5752C97.1898 65.4027 97.1902 65.2301 97.1906 65.0523C97.1914 64.5815 97.1912 64.1108 97.1906 63.64C97.1908 63.505 97.1911 63.3701 97.1914 63.2311C97.1907 63.0499 97.1907 63.0499 97.1901 62.865C97.19 62.7611 97.1898 62.6572 97.1897 62.5501C97.1871 62.2824 97.1871 62.2824 97.0312 62.0156C97.0188 61.7986 97.0153 61.581 97.0162 61.3637C97.0164 61.226 97.0167 61.0882 97.0169 60.9463C97.0183 60.7185 97.0183 60.7185 97.0197 60.4861C97.0202 60.3264 97.0206 60.1666 97.0211 60.002C97.0221 59.6527 97.0234 59.3033 97.025 58.954C97.0274 58.3932 97.0289 57.8323 97.03 57.2715C97.0332 55.7734 97.0375 54.2753 97.0436 52.7773C97.063 47.9668 97.0313 43.1684 96.8064 38.3616C96.7302 36.7311 96.6701 35.0999 96.6094 33.4688ZM99.2812 43.1719C99.4219 43.5938 99.4219 43.5938 99.4219 43.5938L99.2812 43.1719ZM99.1406 67.2188C99.2812 67.5 99.2812 67.5 99.2812 67.5L99.1406 67.2188ZM99.1406 68.4844C99.2812 68.9062 99.2812 68.9062 99.2812 68.9062L99.1406 68.4844ZM99.1406 69.8906C99.2812 70.1719 99.2812 70.1719 99.2812 70.1719L99.1406 69.8906ZM99.1406 70.4531C99.1406 70.9636 99.1406 71.4741 99.1406 72C99.187 72 99.2334 72 99.2812 72C99.2812 71.4895 99.2812 70.9791 99.2812 70.4531C99.2348 70.4531 99.1884 70.4531 99.1406 70.4531ZM99.1406 72.1406C99.2812 72.4219 99.2812 72.4219 99.2812 72.4219L99.1406 72.1406ZM100.688 78.1875C100.688 78.698 100.688 79.2084 100.688 79.7344C100.734 79.7344 100.78 79.7344 100.828 79.7344C100.828 79.2239 100.828 78.7134 100.828 78.1875C100.782 78.1875 100.735 78.1875 100.688 78.1875ZM100.688 79.875C100.828 80.2969 100.828 80.2969 100.828 80.2969L100.688 79.875ZM100.828 86.0625C100.969 86.3438 100.969 86.3438 100.969 86.3438L100.828 86.0625ZM110.109 90.2812C110.109 90.3277 110.109 90.3741 110.109 90.4219C110.527 90.4219 110.945 90.4219 111.375 90.4219C111.375 90.3755 111.375 90.3291 111.375 90.2812C110.957 90.2812 110.54 90.2812 110.109 90.2812ZM111.516 90.2812C111.516 90.3277 111.516 90.3741 111.516 90.4219C111.794 90.4219 112.073 90.4219 112.359 90.4219C112.359 90.3755 112.359 90.3291 112.359 90.2812C112.081 90.2812 111.802 90.2812 111.516 90.2812Z" fill="black"/>
<path d="M72.7031 28.125C72.8423 28.1946 72.8423 28.1946 72.9844 28.2656C72.8628 29.9725 72.7298 31.6747 72.5059 33.3715C71.7939 38.8736 71.6444 44.3729 71.4986 49.9135C71.4578 51.4645 71.4116 53.0152 71.3551 54.5658C71.3485 54.7459 71.342 54.9261 71.3353 55.1116C71.3114 55.7637 71.2873 56.4157 71.2627 57.0677C71.0679 62.302 70.9949 67.5407 70.9408 72.7781C70.9364 73.1953 70.9319 73.6126 70.9273 74.0298C70.891 77.3997 70.8699 80.7693 70.8711 84.1394C70.8712 84.374 70.8712 84.374 70.8713 84.6135C70.872 86.1353 70.8742 87.6572 70.8789 89.1791C70.8805 89.7368 70.8817 90.2945 70.8828 90.8522C70.8837 91.2348 70.8855 91.6175 70.8873 92.0001C70.8878 92.23 70.8883 92.4599 70.8887 92.6898C70.8894 92.7926 70.8902 92.8953 70.8909 93.0012C70.891 93.519 70.8582 93.9965 70.7344 94.5C70.618 94.4993 70.5017 94.4985 70.3818 94.4978C69.8548 94.4949 69.3278 94.493 68.8008 94.4912C68.6177 94.49 68.4346 94.4889 68.246 94.4877C68.0701 94.4872 67.8943 94.4867 67.7131 94.4863C67.5511 94.4855 67.3891 94.4848 67.2222 94.484C66.8623 94.4976 66.5764 94.5383 66.2344 94.6406C65.2983 94.7908 64.3678 94.7972 63.4219 94.7813C63.387 93.8634 63.4272 92.971 63.5218 92.0585C63.6985 90.3475 63.7425 88.6564 63.7355 86.9376C63.7353 86.6525 63.7353 86.3673 63.7353 86.0822C63.7351 85.4882 63.734 84.8941 63.732 84.3001C63.7297 83.5567 63.7291 82.8134 63.7292 82.0701C63.7291 79.1319 63.7065 76.1964 63.6213 73.2594C63.5172 69.6578 63.5581 66.0574 63.6152 62.4551C63.6167 62.3605 63.6182 62.266 63.6197 62.1686C63.8198 49.3086 63.8198 49.3086 64.1623 43.5869C64.2272 42.4903 64.2738 41.3966 64.2929 40.2981C64.3041 39.6745 64.3196 39.051 64.3352 38.4274C64.3415 38.1255 64.3455 37.8235 64.3473 37.5215C64.3616 35.1669 64.3616 35.1669 64.813 34.4556C65.1318 34.1672 65.438 33.9588 65.8125 33.75C65.9619 33.6339 66.1096 33.5156 66.2547 33.394C66.3785 33.3027 66.5023 33.2113 66.6299 33.1172C66.7555 33.0229 66.8811 32.9287 67.0105 32.8315C67.3594 32.625 67.3594 32.625 67.9219 32.625C67.9536 32.476 67.9853 32.327 68.018 32.1735C68.1816 31.6073 68.4463 31.3551 68.915 30.9902C68.9872 30.9331 69.0593 30.876 69.1336 30.8172C69.384 30.6203 69.6372 30.4274 69.8906 30.2344C70.1002 30.0722 70.3096 29.91 70.519 29.7477C72.1024 28.5255 72.1024 28.5255 72.7031 28.125ZM67.9219 34.875C67.9219 35.107 67.9219 35.3391 67.9219 35.5781C67.9683 35.5781 68.0147 35.5781 68.0625 35.5781C68.0625 35.3461 68.0625 35.1141 68.0625 34.875C68.0161 34.875 67.9697 34.875 67.9219 34.875ZM67.2187 35.4375C67.3594 35.7188 67.3594 35.7188 67.3594 35.7188L67.2187 35.4375ZM67.7812 37.9688C67.9219 38.25 67.9219 38.25 67.9219 38.25L67.7812 37.9688ZM67.7812 38.6719C67.7812 38.9967 67.7812 39.3216 67.7812 39.6563C67.8276 39.6563 67.874 39.6563 67.9219 39.6563C67.9219 39.3314 67.9219 39.0066 67.9219 38.6719C67.8755 38.6719 67.829 38.6719 67.7812 38.6719ZM67.7812 39.7969C67.7812 40.1217 67.7812 40.4466 67.7812 40.7813C67.8276 40.7813 67.874 40.7813 67.9219 40.7813C67.9219 40.4564 67.9219 40.1316 67.9219 39.7969C67.8755 39.7969 67.829 39.7969 67.7812 39.7969ZM67.7812 40.9219C67.9219 41.2031 67.9219 41.2031 67.9219 41.2031L67.7812 40.9219ZM67.7812 41.3438C67.9219 41.7656 67.9219 41.7656 67.9219 41.7656L67.7812 41.3438ZM67.6406 42.0469C67.7812 42.3281 67.7812 42.3281 67.7812 42.3281L67.6406 42.0469ZM67.6406 42.4688C67.7812 42.75 67.7812 42.75 67.7812 42.75L67.6406 42.4688ZM67.6406 43.0313C67.7812 43.4531 67.7812 43.4531 67.7812 43.4531L67.6406 43.0313ZM67.6406 43.5938C67.7812 43.875 67.7812 43.875 67.7812 43.875L67.6406 43.5938ZM67.6406 44.0156C67.5942 44.2941 67.5478 44.5725 67.5 44.8594C67.5928 44.813 67.6856 44.7666 67.7812 44.7188C67.7812 44.4867 67.7812 44.2547 67.7812 44.0156C67.7348 44.0156 67.6884 44.0156 67.6406 44.0156ZM67.6406 44.8594C67.4997 45.3633 67.4997 45.3633 67.6406 45.8438C67.8313 45.6855 67.8313 45.6855 67.79 45.2725C67.7871 45.1361 67.7842 44.9998 67.7812 44.8594C67.7348 44.8594 67.6884 44.8594 67.6406 44.8594ZM67.6406 45.8438C67.5942 46.215 67.5478 46.5863 67.5 46.9688C67.8026 46.5148 67.8095 46.3663 67.7812 45.8438C67.7348 45.8438 67.6884 45.8438 67.6406 45.8438ZM67.5 47.1094C67.6406 47.6719 67.6406 47.6719 67.6406 47.6719L67.5 47.1094ZM67.5 47.8125C67.6406 48.0938 67.6406 48.0938 67.6406 48.0938L67.5 47.8125ZM67.3594 48.9375C67.361 49.1075 67.3626 49.2776 67.3643 49.4528C67.378 51.5386 67.378 51.5386 67.289 52.541C67.1606 54.0538 67.2071 55.5769 67.2187 57.0938C67.2651 57.0938 67.3115 57.0938 67.3594 57.0938C67.6101 53.0186 67.6101 53.0186 67.6406 48.9375C67.5478 48.9375 67.455 48.9375 67.3594 48.9375ZM67.2187 57.375C67.3594 57.6563 67.3594 57.6563 67.3594 57.6563L67.2187 57.375ZM67.0781 59.0625C67.2187 59.3438 67.2187 59.3438 67.2187 59.3438L67.0781 59.0625ZM67.0781 60.1875C67.2187 60.6094 67.2187 60.6094 67.2187 60.6094L67.0781 60.1875ZM66.9375 66.375C67.0781 66.6563 67.0781 66.6563 67.0781 66.6563L66.9375 66.375ZM66.7969 67.5C66.7969 68.1497 66.7969 68.7994 66.7969 69.4688C66.8433 69.4688 66.8897 69.4688 66.9375 69.4688C66.9375 68.8191 66.9375 68.1694 66.9375 67.5C66.8911 67.5 66.8447 67.5 66.7969 67.5ZM66.6562 70.3125C66.6562 70.7766 66.6562 71.2406 66.6562 71.7188C66.7026 71.7188 66.749 71.7188 66.7969 71.7188C66.7969 71.2547 66.7969 70.7906 66.7969 70.3125C66.7505 70.3125 66.704 70.3125 66.6562 70.3125ZM66.375 74.25C66.5156 74.5313 66.5156 74.5313 66.5156 74.5313L66.375 74.25ZM67.0781 86.625C67.0781 86.9963 67.0781 87.3675 67.0781 87.75C67.1245 87.75 67.1709 87.75 67.2187 87.75C67.2187 87.3788 67.2187 87.0075 67.2187 86.625C67.1723 86.625 67.1259 86.625 67.0781 86.625ZM66.9375 89.4375C67.0781 89.7188 67.0781 89.7188 67.0781 89.7188L66.9375 89.4375ZM66.9375 89.8594C67.0781 90.4219 67.0781 90.4219 67.0781 90.4219L66.9375 89.8594ZM66.9375 90.5625C67.0781 90.8438 67.0781 90.8438 67.0781 90.8438L66.9375 90.5625ZM66.7969 91.2656C66.9375 91.8281 66.9375 91.8281 66.9375 91.8281L66.7969 91.2656ZM66.7969 92.1094C66.7969 92.7127 66.7969 93.3159 66.7969 93.9375C66.8433 93.9375 66.8897 93.9375 66.9375 93.9375C66.9375 93.3342 66.9375 92.7309 66.9375 92.1094C66.8911 92.1094 66.8447 92.1094 66.7969 92.1094Z" fill="black"/>
<path d="M74.3906 51.0469C74.437 51.0469 74.4834 51.0469 74.5312 51.0469C74.5312 51.743 74.5312 52.4391 74.5312 53.1562C74.4848 53.1562 74.4384 53.1562 74.3906 53.1562C74.3906 52.4602 74.3906 51.7641 74.3906 51.0469Z" fill="#030202"/>
<path d="M96.8906 54.2812C96.937 54.2812 96.9834 54.2812 97.0312 54.2812C97.0312 54.8845 97.0312 55.4878 97.0312 56.1094C96.9848 56.1094 96.9384 56.1094 96.8906 56.1094C96.8906 55.5061 96.8906 54.9028 96.8906 54.2812Z" fill="#020302"/>
<path d="M96.8906 49.5C96.937 49.5 96.9834 49.5 97.0312 49.5C97.0312 49.9177 97.0312 50.3353 97.0312 50.7656C96.9848 50.7656 96.9384 50.7656 96.8906 50.7656C96.8906 50.348 96.8906 49.9303 96.8906 49.5Z" fill="#020202"/>
<path d="M96.8906 51.75C96.937 51.75 96.9834 51.75 97.0312 51.75C97.0312 52.1213 97.0312 52.4925 97.0312 52.875C96.9848 52.875 96.9384 52.875 96.8906 52.875C96.8906 52.5037 96.8906 52.1325 96.8906 51.75Z" fill="#010201"/>
<path d="M74.3906 80.2969C74.437 80.2969 74.4834 80.2969 74.5312 80.2969C74.5312 80.6217 74.5312 80.9466 74.5312 81.2812C74.4848 81.2812 74.4384 81.2812 74.3906 81.2812C74.3906 80.9564 74.3906 80.6316 74.3906 80.2969Z" fill="#010202"/>
<path d="M96.8906 81C96.937 81 96.9834 81 97.0312 81C97.0312 81.2784 97.0312 81.5569 97.0312 81.8438C96.9848 81.8438 96.9384 81.8438 96.8906 81.8438C96.8906 81.5653 96.8906 81.2869 96.8906 81Z" fill="#010100"/>
<path d="M96.8906 80.0156C96.937 80.0156 96.9834 80.0156 97.0312 80.0156C97.0312 80.2941 97.0312 80.5725 97.0312 80.8594C96.9848 80.8594 96.9384 80.8594 96.8906 80.8594C96.8906 80.5809 96.8906 80.3025 96.8906 80.0156Z" fill="#010201"/>
<path d="M96.8906 78.75C96.937 78.75 96.9834 78.75 97.0312 78.75C97.0312 79.0284 97.0312 79.3069 97.0312 79.5938C96.9848 79.5938 96.9384 79.5938 96.8906 79.5938C96.8906 79.3153 96.8906 79.0369 96.8906 78.75Z" fill="#000101"/>
<path d="M74.3906 49.5C74.437 49.5 74.4834 49.5 74.5312 49.5C74.5312 49.7784 74.5312 50.0569 74.5312 50.3438C74.4848 50.3438 74.4384 50.3438 74.3906 50.3438C74.3906 50.0653 74.3906 49.7869 74.3906 49.5Z" fill="#020202"/>
<path d="M104.203 86.7656C104.25 86.7656 104.296 86.7656 104.344 86.7656C104.344 86.9977 104.344 87.2297 104.344 87.4688C104.297 87.4688 104.251 87.4688 104.203 87.4688C104.203 87.2367 104.203 87.0047 104.203 86.7656Z" fill="#020202"/>
<path d="M119.531 74.25C119.578 74.25 119.624 74.25 119.672 74.25C119.672 74.482 119.672 74.7141 119.672 74.9531C119.625 74.9531 119.579 74.9531 119.531 74.9531C119.531 74.7211 119.531 74.4891 119.531 74.25Z" fill="#010101"/>
<path d="M96.75 87.1875C96.8906 87.75 96.8906 87.75 96.8906 87.75L96.75 87.1875Z" fill="#040103"/>
<path d="M119.25 81C119.391 81.5625 119.391 81.5625 119.391 81.5625L119.25 81Z" fill="#010101"/>
<path d="M119.391 77.9062C119.531 78.4688 119.531 78.4688 119.531 78.4688L119.391 77.9062Z" fill="#030101"/>
<path d="M125.859 76.5C126 77.0625 126 77.0625 126 77.0625L125.859 76.5Z" fill="#000101"/>
<path d="M96.8906 75.7969C97.0312 76.3594 97.0312 76.3594 97.0312 76.3594L96.8906 75.7969Z" fill="#010101"/>
<path d="M26.0156 67.7812C26.1562 68.3438 26.1562 68.3438 26.1562 68.3438L26.0156 67.7812Z" fill="#030102"/>
<path d="M96.8906 56.6719C97.0312 57.2344 97.0312 57.2344 97.0312 57.2344L96.8906 56.6719Z" fill="#020201"/>
<path d="M81.9844 47.25C82.125 47.8125 82.125 47.8125 82.125 47.8125L81.9844 47.25Z" fill="#000101"/>
<path d="M81.9844 46.125C82.125 46.6875 82.125 46.6875 82.125 46.6875L81.9844 46.125Z" fill="#000001"/>
<path d="M81.9844 43.875C82.125 44.4375 82.125 44.4375 82.125 44.4375L81.9844 43.875Z" fill="#010002"/>
<path d="M74.5312 43.1719C74.6719 43.7344 74.6719 43.7344 74.6719 43.7344L74.5312 43.1719Z" fill="#020101"/>
<path d="M81.9844 41.7656C82.125 42.3281 82.125 42.3281 82.125 42.3281L81.9844 41.7656Z" fill="#020202"/>
<path d="M128.672 96.6094C129.094 96.75 129.094 96.75 129.094 96.75L128.672 96.6094Z" fill="#060504"/>
<path d="M44.5781 79.5938C44.6245 79.6866 44.6709 79.7794 44.7188 79.875C44.6259 79.8286 44.5331 79.7822 44.4375 79.7344C44.4839 79.688 44.5303 79.6416 44.5781 79.5938Z" fill="#010203"/>
<path d="M49.6406 70.1719C49.7334 70.1719 49.8263 70.1719 49.9219 70.1719C49.8755 70.2647 49.8291 70.3575 49.7812 70.4531C49.7348 70.3603 49.6884 70.2675 49.6406 70.1719Z" fill="#010001"/>
<path d="M48.375 62.2969C48.4678 62.2969 48.5606 62.2969 48.6562 62.2969C48.6098 62.3897 48.5634 62.4825 48.5156 62.5781C48.4692 62.4853 48.4228 62.3925 48.375 62.2969Z" fill="#000001"/>
<path d="M39.5156 97.3125C39.7969 97.4531 39.7969 97.4531 39.7969 97.4531L39.5156 97.3125Z" fill="#191819"/>
<path d="M123.188 96.6094C123.469 96.75 123.469 96.75 123.469 96.75L123.188 96.6094Z" fill="#050605"/>
<path d="M122.766 96.6094C123.047 96.75 123.047 96.75 123.047 96.75L122.766 96.6094Z" fill="#070503"/>
<path d="M133.172 96.4688C133.453 96.6094 133.453 96.6094 133.453 96.6094L133.172 96.4688Z" fill="#080808"/>
<path d="M85.5 93.7969C85.7812 93.9375 85.7812 93.9375 85.7812 93.9375L85.5 93.7969Z" fill="#070607"/>
<path d="M82.9688 82.5469C83.25 82.6875 83.25 82.6875 83.25 82.6875L82.9688 82.5469Z" fill="#000302"/>
<path d="M47.25 71.0156C47.5312 71.1562 47.5312 71.1562 47.5312 71.1562L47.25 71.0156Z" fill="#000202"/>
<path d="M57.9375 68.625C58.2188 68.7656 58.2188 68.7656 58.2188 68.7656L57.9375 68.625Z" fill="#020202"/>
<path d="M119.531 51.1875C119.812 51.3281 119.812 51.3281 119.812 51.3281L119.531 51.1875Z" fill="#050504"/>
<path d="M65.3906 33.75C65.6719 33.8906 65.6719 33.8906 65.6719 33.8906L65.3906 33.75Z" fill="#090A0A"/>
</svg>
